<svg width="525" height="525" viewBox="0 0 525 525" fill="none" xmlns="http://www.w3.org/2000/svg">
<path d="M0 100C0 44.7715 44.7715 0 100 0H425C480.228 0 525 44.7715 525 100V425C525 480.228 480.228 525 425 525H100C44.7715 525 0 480.228 0 425V100Z" fill="white"/>
<path d="M117.9 371L129 311H103.5V291.5H132.6L143.4 231.5H114V212H147L158.1 152H179.1L168 212H216L227.1 152H248.1L237 212H262.5V231.5H233.4L222.6 291.5H252V311H219L207.9 371H186.9L198 311H150L138.9 371H117.9ZM153.6 291.5H201.6L212.4 231.5H164.4L153.6 291.5Z" fill="black"/>
<path d="M369.689 355.796L362.093 363.398L369.689 371L377.284 363.398L369.689 355.796ZM283.743 173C280.894 173 278.161 174.133 276.147 176.149C274.132 178.166 273 180.901 273 183.753C273 186.604 274.132 189.339 276.147 191.356C278.161 193.373 280.894 194.505 283.743 194.505V173ZM308.377 309.634L362.093 363.398L377.284 348.194L323.568 294.43L308.377 309.634ZM377.284 363.398L431 309.634L415.809 294.43L362.093 348.194L377.284 363.398ZM380.432 355.796V248.269H358.945V355.796H380.432ZM305.23 173H283.743V194.505H305.23V173ZM380.432 248.269C380.432 228.306 372.509 209.161 358.406 195.046C344.302 180.93 325.174 173 305.23 173V194.505C319.476 194.505 333.139 200.17 343.212 210.252C353.286 220.335 358.945 234.01 358.945 248.269H380.432Z" fill="black"/>
</svg>
